<?xml version="1.0" standalone="no"?>
<!DOCTYPE svg PUBLIC "-//W3C//DTD SVG 20010904//EN"
 "http://www.w3.org/TR/2001/REC-SVG-20010904/DTD/svg10.dtd">
<svg version="1.0" xmlns="http://www.w3.org/2000/svg"
 width="1344.000000pt" height="1344.000000pt" viewBox="0 0 1344.000000 1344.000000"
 preserveAspectRatio="xMidYMid meet">
<metadata>
Created by potrace 1.14, written by Peter Selinger 2001-2017
</metadata>
<g transform="translate(0.000000,1344.000000) scale(0.100000,-0.100000)"
fill="#000000" stroke="none">
<path d="M0 7681 l0 -1759 25 -4 c14 -3 25 -2 25 3 0 4 13 4 29 -1 16 -4 32
-6 35 -3 7 8 105 7 113 0 3 -3 16 -2 29 3 14 6 26 6 29 0 3 -5 15 -6 28 -1 12
5 31 5 42 1 11 -4 27 -4 36 1 9 5 19 5 23 2 8 -8 102 -7 116 2 5 3 10 3 10 -2
0 -4 17 -7 37 -6 83 3 112 4 211 1 56 -2 102 0 102 4 0 4 6 5 14 2 21 -8 106
-10 106 -2 0 4 13 3 29 -2 16 -4 32 -6 35 -3 7 8 105 7 113 0 3 -3 16 -2 29 3
14 6 26 6 29 0 3 -5 15 -6 28 -1 12 5 31 5 42 1 11 -4 27 -4 36 1 9 5 19 5 23
2 8 -8 102 -7 116 2 5 3 10 3 10 -2 0 -4 17 -7 37 -6 83 3 112 4 211 1 56 -2
102 0 102 4 0 4 6 5 14 2 21 -8 106 -10 106 -2 0 4 13 3 29 -2 16 -4 32 -6 35
-3 7 8 105 7 113 0 3 -3 16 -2 29 3 14 6 26 6 29 0 3 -5 15 -6 29 0 12 4 29 5
36 0 7 -5 23 -4 36 0 12 5 25 6 28 3 7 -7 101 -7 113 0 5 3 15 2 23 -3 7 -4
23 -4 36 0 12 5 25 6 28 3 8 -8 76 -9 76 -1 0 4 13 3 29 -2 16 -4 32 -6 35 -3
7 8 105 7 113 0 3 -3 16 -2 29 3 14 6 26 6 29 0 3 -5 15 -6 28 -1 12 5 31 5
42 1 11 -4 27 -4 36 1 9 5 19 5 23 2 8 -8 102 -7 116 2 5 3 10 3 10 -2 0 -4
17 -7 37 -6 83 3 112 4 211 1 56 -2 102 0 102 4 0 4 6 5 14 2 21 -8 106 -10
106 -2 0 4 13 3 29 -2 16 -4 32 -6 35 -3 7 8 105 7 113 0 3 -3 16 -2 29 3 14
6 26 6 29 0 3 -5 15 -6 28 -1 12 5 31 5 42 1 11 -4 27 -4 36 1 9 5 19 5 23 2
8 -8 102 -7 116 2 5 3 10 3 10 -2 0 -4 17 -7 37 -6 83 3 112 4 211 1 56 -2
102 0 102 4 0 4 6 5 14 2 21 -8 106 -10 106 -2 0 4 13 3 29 -2 16 -4 32 -6 35
-3 7 8 105 7 113 0 3 -3 15 -2 28 3 13 5 26 6 29 3 8 -9 126 -9 126 -1 0 4 6
5 14 2 21 -8 106 -10 106 -2 0 4 13 3 29 -2 16 -4 32 -6 35 -3 7 8 105 7 113
-1 3 -3 13 -1 22 4 10 5 23 5 31 0 7 -4 24 -4 36 0 14 6 26 5 29 0 3 -5 18 -5
35 0 16 5 32 5 34 1 3 -4 30 -4 60 -1 31 3 62 3 68 -1 7 -4 19 -4 28 1 9 5 22
5 30 0 7 -4 24 -4 36 0 14 6 26 5 29 0 3 -5 18 -5 35 0 16 5 32 5 34 1 3 -4
30 -4 60 -1 31 3 62 3 68 -1 7 -4 19 -4 28 1 9 5 22 5 30 0 7 -4 24 -4 36 0
14 6 26 5 29 0 3 -5 18 -5 35 0 16 5 32 5 34 1 3 -4 30 -4 60 -1 31 3 62 3 68
-1 7 -4 19 -4 28 1 9 5 22 5 30 0 7 -4 24 -4 36 0 14 6 26 5 29 0 3 -5 18 -5
35 0 16 5 32 5 34 1 3 -4 30 -4 60 -1 31 3 62 3 68 -1 7 -4 19 -4 28 1 9 5 22
5 30 0 7 -4 24 -4 36 0 14 6 26 5 29 0 3 -5 18 -5 35 0 16 5 32 5 34 1 3 -4
30 -4 60 -1 31 3 62 3 68 -1 7 -4 19 -4 28 1 9 5 22 5 30 0 7 -4 24 -4 36 0
14 6 26 5 29 0 3 -5 18 -5 35 0 16 5 32 5 34 1 3 -4 30 -4 60 -1 31 3 62 3 68
-1 7 -4 19 -4 28 1 9 5 22 5 30 0 7 -4 24 -4 36 0 14 6 26 5 29 0 3 -5 18 -5
35 0 16 5 32 5 34 1 3 -4 30 -4 60 -1 31 3 62 3 68 -1 7 -4 19 -4 28 1 9 5 22
5 30 0 7 -4 24 -4 36 0 14 6 26 5 29 0 3 -5 18 -5 35 0 18 5 32 5 36 -1 3 -5
9 -7 13 -5 9 6 70 7 199 4 56 -2 102 0 102 4 0 4 6 5 14 2 21 -8 106 -10 106
-2 0 4 13 3 29 -2 16 -4 32 -6 35 -3 7 8 105 7 113 0 3 -3 16 -2 29 3 14 6 26
6 29 0 3 -5 15 -6 28 -1 12 5 31 5 42 1 11 -4 27 -4 36 1 9 5 19 5 23 2 8 -8
102 -7 116 2 5 3 10 3 10 -2 0 -4 17 -7 37 -6 83 3 112 4 211 1 56 -2 102 0
102 4 0 4 6 5 14 2 21 -8 106 -10 106 -2 0 4 13 3 29 -2 16 -4 32 -6 35 -3 7
8 105 7 113 0 3 -3 16 -2 29 3 14 6 26 6 29 0 3 -5 15 -6 28 -1 12 5 31 5 42
1 11 -4 27 -4 36 1 9 5 19 5 23 2 8 -8 102 -7 116 2 5 3 10 3 10 -2 0 -4 17
-7 37 -6 83 3 112 4 211 1 56 -2 102 0 102 4 0 4 6 5 14 2 21 -8 106 -10 106
-2 0 4 13 3 29 -2 16 -4 32 -6 35 -3 7 8 105 7 113 0 3 -3 16 -2 29 3 14 6 26
6 29 0 3 -5 15 -6 28 -1 12 5 31 5 42 1 11 -4 27 -4 36 1 9 5 19 5 23 2 8 -8
102 -7 116 2 5 3 10 3 10 -2 0 -4 17 -7 37 -6 83 3 112 4 211 1 56 -2 102 0
102 4 0 4 6 5 14 2 21 -8 106 -10 106 -2 0 4 13 3 29 -2 16 -4 32 -6 35 -3 7
8 105 7 113 0 3 -3 16 -2 29 3 14 6 26 6 29 0 3 -5 15 -6 28 -1 12 5 31 5 42
1 11 -4 27 -4 36 1 9 5 19 5 23 2 8 -8 102 -7 116 2 5 3 10 3 10 -2 0 -4 17
-7 37 -6 83 3 112 4 211 1 56 -2 102 0 102 4 0 4 6 5 14 2 21 -8 106 -10 106
-2 0 4 13 3 29 -2 16 -4 32 -6 35 -3 7 8 105 7 113 0 3 -3 16 -2 29 3 14 6 26
6 29 0 3 -5 15 -6 28 -1 12 5 31 5 42 1 11 -4 27 -4 36 1 9 5 19 5 23 2 8 -8
102 -7 116 2 5 3 10 3 10 -2 0 -4 17 -7 37 -6 59 2 103 3 171 3 34 -1 66 1 70
4 4 2 14 1 22 -4 8 -5 21 -5 30 0 9 5 22 5 28 1 7 -4 35 -5 62 -1 27 4 55 3
62 -1 6 -4 19 -4 28 1 9 5 22 5 30 0 7 -4 24 -4 36 0 14 6 26 5 29 0 3 -5 18
-5 35 0 16 5 32 5 34 1 3 -4 30 -4 60 -1 31 3 62 3 68 -1 7 -4 19 -4 28 1 9 5
22 5 30 0 7 -4 24 -4 36 0 14 6 26 5 29 0 3 -5 18 -5 35 0 16 5 32 5 34 1 3
-4 19 -6 36 -3 l30 4 0 1759 0 1760 -2182 -4 c-1201 -1 -2192 -5 -2203 -9 -16
-5 -59 -11 -160 -24 -5 0 -21 -4 -35 -7 -14 -4 -36 -9 -50 -11 -65 -12 -225
-58 -295 -86 -11 -4 -36 -13 -55 -20 -60 -21 -260 -122 -260 -131 0 -5 -6 -9
-12 -9 -13 0 -26 -9 -128 -92 -98 -79 -402 -388 -472 -478 -61 -80 -268 -383
-268 -394 0 -3 -13 -25 -30 -49 -16 -25 -30 -49 -30 -55 0 -6 -4 -12 -8 -14
-7 -3 -39 -58 -142 -243 -72 -128 -252 -501 -253 -522 0 -7 -4 -13 -9 -13 -4
0 -8 -7 -8 -15 0 -8 -4 -23 -10 -33 -5 -9 -17 -35 -26 -56 -11 -24 -20 -34
-23 -25 -5 16 -52 120 -116 254 -23 50 -52 113 -65 140 -12 28 -39 86 -60 130
-21 44 -53 114 -73 155 -19 41 -49 107 -67 145 -65 140 -84 180 -84 187 -1 4
-7 13 -13 20 -7 6 -13 19 -13 28 0 9 -4 20 -9 26 -6 5 -22 32 -36 59 -29 53
-114 187 -125 195 -4 3 -11 12 -16 21 -26 47 -272 307 -339 359 -55 42 -165
120 -170 120 -3 0 -15 8 -25 18 -11 10 -36 27 -57 38 -58 31 -87 48 -93 54
-11 12 -212 110 -225 110 -7 0 -15 3 -17 8 -5 10 -319 124 -381 136 -40 9 -61
14 -102 24 -22 6 -56 13 -75 16 -19 2 -44 7 -55 9 -12 3 -45 8 -75 12 -30 3
-68 9 -85 12 -16 4 -1014 8 -2217 10 l-2188 4 0 -1760z"/>
<path d="M32 5282 l-32 -3 0 -640 0 -639 6720 0 6720 0 0 639 0 639 -30 4
c-17 3 -33 1 -35 -3 -3 -4 -20 -3 -39 1 -19 4 -37 5 -40 3 -7 -7 -106 -9 -106
-3 0 3 -32 3 -70 0 -39 -3 -70 -3 -70 0 0 3 -26 4 -57 2 -32 -2 -69 -2 -83 -2
-14 1 -29 2 -35 1 -112 -5 -165 -5 -165 -1 0 3 -24 4 -52 3 -75 -3 -87 -4
-146 -3 -29 0 -57 -2 -61 -4 -4 -3 -13 -1 -20 4 -8 4 -26 4 -41 0 -15 -4 -33
-4 -40 0 -7 5 -22 5 -34 1 -11 -5 -35 -5 -53 -1 -17 4 -34 5 -37 3 -6 -7 -136
-9 -136 -3 0 3 -26 4 -57 2 -32 -2 -69 -2 -83 -2 -14 1 -32 1 -40 1 -57 -3
-142 -1 -149 4 -5 3 -12 1 -15 -4 -3 -4 -23 -5 -43 -1 -21 3 -50 3 -64 -1 -15
-3 -33 -3 -40 2 -7 4 -16 6 -20 3 -4 -2 -34 -4 -66 -4 -32 0 -67 1 -78 0 -11
0 -36 0 -55 1 -19 0 -42 0 -50 0 -8 -1 -26 -1 -40 0 -14 0 -29 1 -35 1 -14 -1
-117 -1 -135 -1 -8 0 -43 -1 -78 -2 -34 -1 -64 0 -66 2 -2 2 -45 2 -95 -1 -50
-3 -91 -3 -91 0 0 3 -24 4 -52 3 -75 -3 -87 -4 -146 -3 -29 0 -57 -2 -61 -4
-4 -3 -13 -1 -20 4 -8 4 -26 4 -41 0 -15 -4 -33 -4 -40 0 -7 5 -22 5 -34 1
-11 -5 -35 -5 -53 -1 -17 4 -34 5 -37 3 -6 -7 -136 -9 -136 -3 0 3 -26 4 -57
2 -32 -2 -69 -2 -83 -2 -14 1 -32 1 -40 1 -57 -3 -142 -1 -149 4 -5 3 -12 1
-15 -4 -3 -4 -23 -5 -43 -1 -21 3 -50 3 -64 -1 -15 -3 -33 -3 -40 2 -7 4 -16
6 -20 3 -4 -2 -34 -4 -66 -4 -32 0 -67 1 -78 0 -11 0 -36 0 -55 1 -19 0 -42 0
-50 0 -8 -1 -26 -1 -40 0 -14 0 -29 1 -35 1 -14 -1 -117 -1 -135 -1 -8 0 -43
-1 -78 -2 -34 -1 -64 0 -66 2 -2 2 -45 2 -95 -1 -50 -3 -91 -3 -91 0 0 3 -24
4 -52 3 -75 -3 -87 -4 -146 -3 -29 0 -57 -2 -61 -4 -4 -3 -13 -1 -20 4 -8 4
-26 4 -41 0 -15 -4 -33 -4 -40 0 -7 5 -22 5 -34 1 -11 -5 -35 -5 -53 -1 -17 4
-34 5 -37 3 -6 -7 -136 -9 -136 -3 0 3 -26 4 -57 2 -32 -2 -69 -2 -83 -2 -14
1 -32 1 -40 1 -57 -3 -142 -1 -149 4 -5 3 -12 1 -16 -5 -4 -6 -10 -8 -15 -5
-5 3 -29 5 -52 5 -24 0 -50 -1 -58 -1 -8 0 -48 1 -88 2 -40 1 -75 -1 -78 -4
-3 -2 -20 -1 -39 3 -19 4 -36 5 -39 3 -7 -7 -106 -9 -106 -3 0 3 -32 3 -70 0
-39 -3 -70 -3 -70 0 0 3 -26 4 -57 2 -32 -2 -69 -2 -83 -2 -14 1 -29 2 -35 1
-5 0 -36 -2 -68 -3 -31 -2 -57 -1 -57 2 0 6 -156 2 -182 -4 -10 -2 -18 -1 -18
3 0 3 -31 4 -70 1 -38 -3 -70 -3 -70 0 0 3 -26 4 -57 2 -32 -2 -69 -2 -83 -2
-14 1 -32 1 -40 1 -39 -2 -115 1 -121 5 -4 2 -10 0 -13 -5 -3 -5 -21 -6 -40
-1 -19 4 -37 5 -40 3 -7 -7 -106 -9 -106 -3 0 3 -32 3 -70 0 -39 -3 -70 -3
-70 0 0 3 -26 4 -57 2 -32 -2 -69 -2 -83 -2 -14 1 -29 2 -35 1 -5 0 -36 -2
-68 -3 -31 -2 -57 -1 -57 2 0 6 -156 2 -182 -4 -10 -2 -18 -1 -18 3 0 3 -31 4
-70 1 -38 -3 -70 -3 -70 0 0 3 -26 4 -57 2 -32 -2 -69 -2 -83 -2 -14 1 -29 2
-35 1 -112 -5 -165 -5 -165 -1 0 3 -24 4 -52 3 -75 -3 -87 -4 -146 -3 -29 0
-57 -2 -61 -4 -4 -3 -13 -1 -20 4 -8 4 -26 4 -41 0 -15 -4 -33 -4 -40 0 -7 5
-22 5 -34 1 -11 -5 -35 -5 -53 -1 -17 4 -34 5 -37 3 -6 -7 -136 -9 -136 -3 0
3 -26 4 -57 2 -32 -2 -69 -2 -83 -2 -14 1 -32 1 -40 1 -57 -3 -142 -1 -149 4
-5 3 -12 1 -15 -4 -3 -4 -23 -5 -43 -1 -21 3 -50 3 -64 -1 -15 -3 -33 -3 -40
2 -7 4 -16 6 -20 3 -4 -2 -34 -4 -66 -4 -32 0 -67 1 -78 0 -11 0 -36 0 -55 1
-19 0 -42 0 -50 0 -8 -1 -26 -1 -40 0 -14 0 -29 1 -35 1 -14 -1 -117 -1 -135
-1 -8 0 -43 -1 -78 -2 -34 -1 -64 0 -66 2 -2 2 -45 2 -95 -1 -50 -3 -91 -3
-91 0 0 3 -24 4 -52 3 -75 -3 -87 -4 -146 -3 -29 0 -57 -2 -61 -4 -4 -3 -13
-1 -20 4 -8 4 -26 4 -41 0 -15 -4 -33 -4 -40 0 -7 5 -22 5 -34 1 -11 -5 -35
-5 -53 -1 -17 4 -34 5 -37 3 -6 -7 -136 -9 -136 -3 0 3 -26 4 -57 2 -32 -2
-69 -2 -83 -2 -14 1 -32 1 -40 1 -57 -3 -142 -1 -149 4 -5 3 -12 1 -15 -4 -3
-4 -23 -5 -43 -1 -21 3 -50 3 -64 -1 -15 -3 -33 -3 -40 2 -7 4 -16 6 -20 3 -4
-2 -34 -4 -66 -4 -32 0 -67 1 -78 0 -11 0 -36 0 -55 1 -19 0 -42 0 -50 0 -8
-1 -26 -1 -40 0 -14 0 -29 1 -35 1 -14 -1 -117 -1 -135 -1 -8 0 -43 -1 -78 -2
-34 -1 -64 0 -66 2 -2 2 -45 2 -95 -1 -50 -3 -91 -3 -91 0 0 3 -24 4 -52 3
-75 -3 -87 -4 -146 -3 -29 0 -57 -2 -61 -4 -4 -3 -13 -1 -20 4 -8 4 -26 4 -41
0 -15 -4 -33 -4 -40 0 -7 5 -22 5 -34 1 -11 -5 -35 -5 -53 -1 -17 4 -34 5 -37
3 -6 -7 -136 -9 -136 -3 0 3 -26 4 -57 2 -32 -2 -69 -2 -83 -2 -14 1 -32 1
-40 1 -57 -3 -142 -1 -149 4 -5 3 -12 1 -15 -4 -3 -4 -23 -5 -43 -2 -21 4 -49
4 -63 1 -14 -4 -32 -4 -40 -1 -8 4 -30 5 -48 3z"/>
</g>
</svg>
